# xmcd CD database file
#
# Track frame offsets:
#	150
#	14847
#	33437
#	47737
#	68725
#	84630
#	101945
#	120437
#	135175
#	151942
#
# Disc length: 2241 seconds
#
# Revision: 0
# Processed by: cddbd v1.5.1PL0 Copyright (c) Steve Scherf et al.
# Submitted via: CDex 1.50
#
DISCID=7d08bf0a
DTITLE=FEEL SO BAD - F・S・B（月間F・S・B特別号）
DYEAR=2000
DGENRE=Rock
TTITLE0=F・S・B・?
TTITLE1=Dreams
TTITLE2=CAGE
TTITLE3=太陽の唄
TTITLE4=ロマンス
TTITLE5=JEWEL
TTITLE6=いじわるな真夏
TTITLE7=幸せのフライデーナイト
TTITLE8=聖者とペテン師
TTITLE9=愛していた
EXTD=YEAR: 2000
EXTT0=
EXTT1=
EXTT2=
EXTT3=
EXTT4=
EXTT5=
EXTT6=
EXTT7=
EXTT8=
EXTT9=
PLAYORDER=
